<?xml version="1.0" encoding="UTF-8"?>
<svg width="220px" height="54px" viewBox="0 0 220 54" xmlns="http://www.w3.org/2000/svg" xmlns:xlink="http://www.w3.org/1999/xlink">
  <g id="svgGroup" stroke="none" stroke-width="1" fill="none" fill-rule="evenodd">
    <title>logo-mobile</title>
    <path fill="#0053b3" d="M 92.05 40.74 L 118.72 40.74 L 118.72 49.84 L 80.78 49.84 L 80.78 0.84 L 117.81 0.84 L 117.81 9.94 L 92.05 9.94 L 92.05 20.58 L 114.8 20.58 L 114.8 29.4 L 92.05 29.4 L 92.05 40.74 Z M 177.52 45.01 L 181.37 36.47 A 23.921 23.921 0 0 0 185.742 38.988 A 30.452 30.452 0 0 0 188.86 40.18 Q 193.2 41.58 197.54 41.58 A 25.926 25.926 0 0 0 200.058 41.467 Q 203.02 41.176 204.68 40.145 A 5.73 5.73 0 0 0 205.935 39.115 A 4.035 4.035 0 0 0 206.99 36.33 Q 206.99 34.58 205.625 33.425 A 8.77 8.77 0 0 0 204.013 32.355 Q 203.226 31.944 202.285 31.624 A 14.796 14.796 0 0 0 202.125 31.57 A 40.228 40.228 0 0 0 200.644 31.119 Q 198.853 30.608 196.35 30.03 A 116.627 116.627 0 0 1 192.587 29.074 Q 190.832 28.595 189.341 28.116 A 50.17 50.17 0 0 1 187.18 27.37 Q 183.61 26.04 181.055 23.1 A 10.049 10.049 0 0 1 178.89 18.789 Q 178.524 17.275 178.502 15.498 A 18.523 18.523 0 0 1 178.5 15.26 Q 178.5 10.99 180.81 7.525 A 13.82 13.82 0 0 1 184.496 3.835 A 19.254 19.254 0 0 1 187.775 2.03 Q 191.812 0.27 197.401 0.036 A 41.849 41.849 0 0 1 199.15 0 Q 203.84 0 208.32 1.12 A 30.182 30.182 0 0 1 212.885 2.638 A 23.963 23.963 0 0 1 216.16 4.34 L 212.66 12.95 Q 205.87 9.1 199.08 9.1 A 23.475 23.475 0 0 0 196.599 9.222 Q 193.68 9.533 192.045 10.64 Q 189.77 12.18 189.77 14.7 A 3.694 3.694 0 0 0 191.231 17.739 A 5.832 5.832 0 0 0 192.395 18.445 A 19.711 19.711 0 0 0 194.09 19.131 Q 196.536 20.005 200.41 20.86 A 116.627 116.627 0 0 1 204.173 21.816 Q 205.928 22.295 207.419 22.775 A 50.17 50.17 0 0 1 209.58 23.52 Q 213.15 24.85 215.705 27.72 A 9.684 9.684 0 0 1 217.838 31.844 Q 218.207 33.292 218.253 34.998 A 18.213 18.213 0 0 1 218.26 35.49 Q 218.26 39.69 215.915 43.155 A 13.984 13.984 0 0 1 212.216 46.825 A 19.508 19.508 0 0 1 208.88 48.65 A 23.065 23.065 0 0 1 204.037 50.107 Q 201.696 50.555 199.004 50.653 A 42.209 42.209 0 0 1 197.47 50.68 Q 191.66 50.68 186.235 49.105 Q 181.976 47.868 179.032 46.049 A 18.352 18.352 0 0 1 177.52 45.01 Z M 164.36 49.84 L 160.02 39.34 L 137.27 39.34 L 132.93 49.84 L 121.31 49.84 L 143.15 0.84 L 154.35 0.84 L 176.26 49.84 L 164.36 49.84 Z M 22.96 49.84 L 22.96 0.84 L 45.22 0.84 A 35.566 35.566 0 0 1 52.736 1.601 A 28.014 28.014 0 0 1 59.325 3.885 A 23.289 23.289 0 0 1 66.849 9.698 A 22.473 22.473 0 0 1 68.845 12.46 A 22.937 22.937 0 0 1 72.028 21.779 A 29.136 29.136 0 0 1 72.24 25.34 A 26.908 26.908 0 0 1 71.365 32.336 A 22.155 22.155 0 0 1 68.845 38.22 A 22.756 22.756 0 0 1 59.516 46.699 A 27.073 27.073 0 0 1 59.325 46.795 A 28.863 28.863 0 0 1 50.487 49.48 A 37.304 37.304 0 0 1 45.22 49.84 L 22.96 49.84 Z M 0 49.84 L 0 0.84 L 11.34 0.84 L 11.34 49.84 L 0 49.84 Z M 34.3 40.53 L 44.66 40.53 Q 52.01 40.53 56.385 36.435 A 13.552 13.552 0 0 0 60.516 28.486 A 19.46 19.46 0 0 0 60.76 25.34 A 18.058 18.058 0 0 0 60.145 20.499 A 13.246 13.246 0 0 0 56.385 14.245 A 14.739 14.739 0 0 0 49.362 10.634 A 21.634 21.634 0 0 0 44.66 10.15 L 34.3 10.15 L 34.3 40.53 Z M 140.91 30.73 L 156.45 30.73 L 148.68 11.97 L 140.91 30.73 Z" vector-effect="non-scaling-stroke"/>
    </g>
</svg>
