<?xml version="1.0" encoding="UTF-8"?>
<svg width="840px" height="64px" viewBox="0 0 840 64" version="1.1" xmlns="http://www.w3.org/2000/svg" xmlns:xlink="http://www.w3.org/1999/xlink">
    <title>logo</title>
    <g id="Page-1" stroke="none" stroke-width="1" fill="none" fill-rule="evenodd">
        <g id="logo" transform="translate(2.000000, 0.000000)" fill-rule="evenodd">
          <path id="IDEAS" fill="#7983f8" d="M 722.02 42.705 L 746.785 42.705 L 746.785 51.155 L 711.555 51.155 L 711.555 5.655 L 745.94 5.655 L 745.94 14.105 L 722.02 14.105 L 722.02 23.985 L 743.145 23.985 L 743.145 32.175 L 722.02 32.175 L 722.02 42.705 Z M 31.2 5.655 L 41.73 5.655 L 41.73 51.155 L 31.2 51.155 L 31.2 32.5 L 10.53 32.5 L 10.53 51.155 L 0 51.155 L 0 5.655 L 10.53 5.655 L 10.53 23.595 L 31.2 23.595 L 31.2 5.655 Z M 801.385 46.67 L 804.96 38.74 Q 807.885 40.885 811.915 42.185 Q 815.945 43.485 819.975 43.485 A 24.074 24.074 0 0 0 822.313 43.38 Q 824.655 43.15 826.121 42.422 A 5.862 5.862 0 0 0 826.605 42.153 A 5.321 5.321 0 0 0 827.77 41.196 A 3.747 3.747 0 0 0 828.75 38.61 A 3.356 3.356 0 0 0 827.682 36.092 A 4.254 4.254 0 0 0 827.482 35.913 A 8.144 8.144 0 0 0 825.985 34.919 Q 825.255 34.537 824.382 34.24 A 13.737 13.737 0 0 0 824.233 34.19 A 37.354 37.354 0 0 0 822.857 33.771 Q 821.194 33.297 818.87 32.76 A 108.296 108.296 0 0 1 815.376 31.873 Q 813.746 31.428 812.361 30.983 A 46.586 46.586 0 0 1 810.355 30.29 Q 807.04 29.055 804.667 26.325 Q 802.353 23.662 802.296 19.266 A 17.2 17.2 0 0 1 802.295 19.045 Q 802.295 15.08 804.44 11.863 Q 806.585 8.645 810.907 6.76 A 21.114 21.114 0 0 1 815.381 5.407 Q 818.155 4.875 821.47 4.875 Q 825.825 4.875 829.985 5.915 A 28.026 28.026 0 0 1 834.224 7.325 A 22.251 22.251 0 0 1 837.265 8.905 L 834.015 16.9 A 28.622 28.622 0 0 0 827.71 14.219 A 23.022 23.022 0 0 0 821.405 13.325 A 21.799 21.799 0 0 0 819.101 13.438 Q 816.391 13.727 814.873 14.755 A 5.312 5.312 0 0 0 813.632 15.894 A 4.179 4.179 0 0 0 812.76 18.525 A 3.43 3.43 0 0 0 814.117 21.348 A 5.415 5.415 0 0 0 815.197 22.003 A 18.303 18.303 0 0 0 816.772 22.64 Q 818.51 23.261 821.027 23.872 A 79.137 79.137 0 0 0 822.64 24.245 A 108.296 108.296 0 0 1 826.134 25.133 Q 827.764 25.578 829.149 26.023 A 46.586 46.586 0 0 1 831.155 26.715 Q 834.47 27.95 836.843 30.615 Q 839.095 33.145 839.209 37.373 A 16.912 16.912 0 0 1 839.215 37.83 Q 839.215 41.73 837.037 44.948 A 12.985 12.985 0 0 1 833.602 48.355 A 18.115 18.115 0 0 1 830.505 50.05 A 21.418 21.418 0 0 1 826.008 51.403 Q 823.834 51.819 821.335 51.91 A 39.195 39.195 0 0 1 819.91 51.935 Q 814.515 51.935 809.478 50.473 A 32.962 32.962 0 0 1 805.978 49.252 Q 803.294 48.133 801.385 46.67 Z M 218.075 31.135 L 218.075 51.155 L 207.935 51.155 L 207.935 32.695 A 15.144 15.144 0 0 0 207.775 30.411 Q 207.395 27.927 206.115 26.488 A 5.873 5.873 0 0 0 203.049 24.688 Q 202.11 24.456 200.999 24.441 A 11.415 11.415 0 0 0 200.85 24.44 A 10.038 10.038 0 0 0 198.193 24.774 A 7.396 7.396 0 0 0 194.74 26.813 A 7.473 7.473 0 0 0 193.07 29.653 Q 192.465 31.452 192.465 33.865 L 192.465 51.155 L 182.325 51.155 L 182.325 2.925 L 192.465 2.925 L 192.465 19.825 A 13.335 13.335 0 0 1 196.811 16.947 A 15.5 15.5 0 0 1 197.34 16.738 Q 200.2 15.665 203.58 15.665 Q 210.08 15.665 214.078 19.565 A 12.345 12.345 0 0 1 217.197 24.773 Q 218.075 27.54 218.075 31.135 Z M 547.3 31.135 L 547.3 51.155 L 537.16 51.155 L 537.16 32.695 A 15.144 15.144 0 0 0 537 30.411 Q 536.62 27.927 535.34 26.488 A 5.873 5.873 0 0 0 532.274 24.688 Q 531.335 24.456 530.224 24.441 A 11.415 11.415 0 0 0 530.075 24.44 A 10.038 10.038 0 0 0 527.418 24.774 A 7.396 7.396 0 0 0 523.965 26.813 A 7.473 7.473 0 0 0 522.295 29.653 Q 521.69 31.452 521.69 33.865 L 521.69 51.155 L 511.55 51.155 L 511.55 16.185 L 521.235 16.185 L 521.235 20.28 A 13.256 13.256 0 0 1 525.598 17.143 A 15.583 15.583 0 0 1 526.24 16.868 A 16.787 16.787 0 0 1 531.161 15.731 A 20.113 20.113 0 0 1 532.805 15.665 Q 539.305 15.665 543.303 19.565 A 12.345 12.345 0 0 1 546.422 24.773 Q 547.3 27.54 547.3 31.135 Z M 374.66 47.905 L 378.04 40.625 A 18.18 18.18 0 0 0 380.712 42.02 Q 382.046 42.588 383.595 43.034 A 29.632 29.632 0 0 0 383.695 43.063 A 24.343 24.343 0 0 0 388.745 43.957 A 21.869 21.869 0 0 0 390.195 44.005 A 19.52 19.52 0 0 0 392.341 43.898 Q 394.488 43.659 395.56 42.888 A 2.42 2.42 0 0 0 396.63 40.82 A 1.984 1.984 0 0 0 395.772 39.143 Q 395.403 38.871 394.875 38.675 A 12.018 12.018 0 0 0 393.739 38.325 Q 392.096 37.897 389.48 37.57 A 75.01 75.01 0 0 1 386.59 37.078 Q 385.237 36.818 384.079 36.534 A 33.364 33.364 0 0 1 382.395 36.075 Q 379.6 35.23 377.553 33.085 A 6.966 6.966 0 0 1 375.925 30.195 Q 375.61 29.128 375.531 27.85 A 14.21 14.21 0 0 1 375.505 26.975 Q 375.505 23.66 377.423 21.093 Q 379.34 18.525 383.013 17.095 A 19.964 19.964 0 0 1 387.018 16.023 Q 388.916 15.71 391.07 15.671 A 34.172 34.172 0 0 1 391.69 15.665 Q 395.395 15.665 399.068 16.478 A 26.958 26.958 0 0 1 401.83 17.236 Q 403.712 17.868 405.145 18.72 L 401.765 25.935 Q 397.15 23.335 391.69 23.335 Q 388.44 23.335 386.815 24.245 A 4.308 4.308 0 0 0 386.039 24.79 Q 385.19 25.552 385.19 26.585 Q 385.19 27.854 386.26 28.529 A 3.676 3.676 0 0 0 386.945 28.86 A 12.864 12.864 0 0 0 387.953 29.181 Q 389.119 29.506 390.832 29.814 A 65.551 65.551 0 0 0 392.535 30.095 A 88.998 88.998 0 0 1 395.3 30.598 Q 396.532 30.844 397.595 31.1 A 38.434 38.434 0 0 1 399.555 31.623 Q 402.285 32.435 404.3 34.58 A 7.069 7.069 0 0 1 405.95 37.601 Q 406.247 38.679 406.302 39.959 A 13.851 13.851 0 0 1 406.315 40.56 A 10.825 10.825 0 0 1 406.315 40.611 A 9.229 9.229 0 0 1 404.365 46.345 A 10.771 10.771 0 0 1 401.606 48.837 Q 400.393 49.615 398.881 50.2 A 18.583 18.583 0 0 1 398.677 50.278 A 20.848 20.848 0 0 1 394.729 51.304 Q 392.808 51.617 390.623 51.666 A 36.515 36.515 0 0 1 389.805 51.675 Q 385.45 51.675 381.29 50.603 A 31.835 31.835 0 0 1 378.518 49.761 Q 377.238 49.303 376.177 48.773 A 14.75 14.75 0 0 1 374.66 47.905 Z M 789.165 51.155 L 785.135 41.405 L 764.01 41.405 L 759.98 51.155 L 749.19 51.155 L 769.47 5.655 L 779.87 5.655 L 800.215 51.155 L 789.165 51.155 Z M 290.42 51.155 L 266.89 51.155 L 266.89 5.655 L 289.12 5.655 Q 294.576 5.655 298.369 7.025 A 14.46 14.46 0 0 1 301.892 8.84 Q 306.169 11.899 306.338 17.057 A 13.069 13.069 0 0 1 306.345 17.485 A 11.781 11.781 0 0 1 305.784 21.17 A 10.516 10.516 0 0 1 304.752 23.4 Q 303.16 26 300.3 27.495 A 13.426 13.426 0 0 1 303.73 29.112 A 11.132 11.132 0 0 1 306.41 31.623 A 10.65 10.65 0 0 1 308.455 36.529 A 14.288 14.288 0 0 1 308.62 38.74 A 12.252 12.252 0 0 1 307.966 42.837 A 10.276 10.276 0 0 1 303.973 47.938 Q 300.654 50.235 295.163 50.892 A 40.032 40.032 0 0 1 290.42 51.155 Z M 122.785 31.2 L 122.785 51.155 L 113.295 51.155 L 113.295 46.8 Q 110.752 51.134 104.305 51.615 A 22.465 22.465 0 0 1 102.635 51.675 Q 98.676 51.675 95.752 50.358 A 12.612 12.612 0 0 1 95.647 50.31 Q 92.69 48.945 91.13 46.54 Q 89.57 44.135 89.57 41.08 A 10.368 10.368 0 0 1 90.165 37.494 A 8.932 8.932 0 0 1 93.243 33.41 A 11.5 11.5 0 0 1 96.539 31.714 Q 99.571 30.685 103.981 30.62 A 40.801 40.801 0 0 1 104.585 30.615 L 112.645 30.615 A 8.712 8.712 0 0 0 112.41 28.528 A 5.766 5.766 0 0 0 110.63 25.513 Q 109.093 24.149 106.384 23.826 A 15.196 15.196 0 0 0 104.585 23.725 Q 101.79 23.725 99.093 24.603 A 16.484 16.484 0 0 0 96.527 25.672 A 12.829 12.829 0 0 0 94.51 26.975 L 90.87 19.89 A 19.8 19.8 0 0 1 94.667 17.818 A 25.799 25.799 0 0 1 97.727 16.77 Q 101.725 15.665 105.95 15.665 A 27.372 27.372 0 0 1 110.768 16.062 Q 115.47 16.904 118.43 19.533 A 12.2 12.2 0 0 1 121.981 25.223 Q 122.584 27.192 122.735 29.57 A 25.77 25.77 0 0 1 122.785 31.2 Z M 445.12 24.57 L 437.255 28.795 A 10.742 10.742 0 0 0 435.205 26.157 A 8.278 8.278 0 0 0 429.39 23.985 A 9.914 9.914 0 0 0 426.077 24.519 A 8.589 8.589 0 0 0 422.825 26.585 A 8.622 8.622 0 0 0 420.505 30.93 A 12.709 12.709 0 0 0 420.225 33.67 Q 420.225 38.155 422.825 40.755 A 8.773 8.773 0 0 0 428.779 43.339 A 11.625 11.625 0 0 0 429.39 43.355 A 8.81 8.81 0 0 0 433.326 42.499 Q 435.192 41.583 436.54 39.685 A 12.035 12.035 0 0 0 437.255 38.545 L 445.12 42.835 Q 443.235 46.995 439.108 49.335 A 17.819 17.819 0 0 1 432.93 51.423 A 23.181 23.181 0 0 1 429.455 51.675 A 23.298 23.298 0 0 1 423.526 50.945 A 19.853 19.853 0 0 1 419.412 49.368 Q 414.96 47.06 412.458 42.965 A 17.147 17.147 0 0 1 409.994 34.953 A 20.794 20.794 0 0 1 409.955 33.67 A 18.463 18.463 0 0 1 410.872 27.778 A 16.607 16.607 0 0 1 412.457 24.375 Q 414.96 20.28 419.413 17.973 A 20.685 20.685 0 0 1 427.043 15.778 A 25.394 25.394 0 0 1 429.455 15.665 A 22.437 22.437 0 0 1 434.328 16.172 A 17.519 17.519 0 0 1 439.107 17.973 Q 443.235 20.28 445.12 24.57 Z M 589.42 24.57 L 581.555 28.795 A 10.742 10.742 0 0 0 579.505 26.157 A 8.278 8.278 0 0 0 573.69 23.985 A 9.914 9.914 0 0 0 570.377 24.519 A 8.589 8.589 0 0 0 567.125 26.585 A 8.622 8.622 0 0 0 564.805 30.93 A 12.709 12.709 0 0 0 564.525 33.67 Q 564.525 38.155 567.125 40.755 A 8.773 8.773 0 0 0 573.079 43.339 A 11.625 11.625 0 0 0 573.69 43.355 A 8.81 8.81 0 0 0 577.626 42.499 Q 579.492 41.583 580.84 39.685 A 12.035 12.035 0 0 0 581.555 38.545 L 589.42 42.835 Q 587.535 46.995 583.407 49.335 A 17.819 17.819 0 0 1 577.23 51.423 A 23.181 23.181 0 0 1 573.755 51.675 A 23.298 23.298 0 0 1 567.826 50.945 A 19.853 19.853 0 0 1 563.712 49.368 Q 559.26 47.06 556.757 42.965 A 17.147 17.147 0 0 1 554.294 34.953 A 20.794 20.794 0 0 1 554.255 33.67 A 18.463 18.463 0 0 1 555.172 27.778 A 16.607 16.607 0 0 1 556.757 24.375 Q 559.26 20.28 563.713 17.973 A 20.685 20.685 0 0 1 571.343 15.778 A 25.394 25.394 0 0 1 573.755 15.665 A 22.437 22.437 0 0 1 578.628 16.172 A 17.519 17.519 0 0 1 583.407 17.973 Q 587.535 20.28 589.42 24.57 Z M 85.865 36.53 L 59.41 36.53 Q 60.125 39.78 62.79 41.665 A 10.017 10.017 0 0 0 66.629 43.285 A 14.001 14.001 0 0 0 69.42 43.55 Q 72.15 43.55 74.263 42.738 A 11.233 11.233 0 0 0 77.267 40.989 A 13.616 13.616 0 0 0 78.195 40.17 L 83.59 46.02 A 15.887 15.887 0 0 1 75.27 50.976 Q 72.496 51.675 69.16 51.675 Q 63.245 51.675 58.695 49.368 A 17.567 17.567 0 0 1 53.619 45.569 A 16.372 16.372 0 0 1 51.675 42.965 A 17.306 17.306 0 0 1 49.244 34.963 A 21.06 21.06 0 0 1 49.205 33.67 A 18.593 18.593 0 0 1 50.255 27.364 A 17.172 17.172 0 0 1 51.643 24.408 Q 54.08 20.28 58.338 17.973 A 19.258 19.258 0 0 1 66.399 15.711 A 23.108 23.108 0 0 1 67.86 15.665 A 20.579 20.579 0 0 1 73.898 16.529 A 18.333 18.333 0 0 1 77.155 17.875 Q 81.315 20.085 83.688 24.213 Q 86.06 28.34 86.06 33.8 A 1.998 1.998 0 0 1 86.057 33.886 Q 86.036 34.312 85.865 36.53 Z M 504.595 36.53 L 478.14 36.53 Q 478.855 39.78 481.52 41.665 A 10.017 10.017 0 0 0 485.359 43.285 A 14.001 14.001 0 0 0 488.15 43.55 Q 490.88 43.55 492.993 42.738 A 11.233 11.233 0 0 0 495.997 40.989 A 13.616 13.616 0 0 0 496.925 40.17 L 502.32 46.02 A 15.887 15.887 0 0 1 494 50.976 Q 491.226 51.675 487.89 51.675 Q 481.975 51.675 477.425 49.368 A 17.567 17.567 0 0 1 472.349 45.569 A 16.372 16.372 0 0 1 470.405 42.965 A 17.306 17.306 0 0 1 467.974 34.963 A 21.06 21.06 0 0 1 467.935 33.67 A 18.593 18.593 0 0 1 468.985 27.364 A 17.172 17.172 0 0 1 470.373 24.408 Q 472.81 20.28 477.068 17.973 A 19.258 19.258 0 0 1 485.129 15.711 A 23.108 23.108 0 0 1 486.59 15.665 A 20.579 20.579 0 0 1 492.628 16.529 A 18.333 18.333 0 0 1 495.885 17.875 Q 500.045 20.085 502.418 24.213 Q 504.79 28.34 504.79 33.8 A 1.998 1.998 0 0 1 504.787 33.886 Q 504.766 34.312 504.595 36.53 Z M 628.875 36.53 L 602.42 36.53 Q 603.135 39.78 605.8 41.665 A 10.017 10.017 0 0 0 609.639 43.285 A 14.001 14.001 0 0 0 612.43 43.55 Q 615.16 43.55 617.272 42.738 A 11.233 11.233 0 0 0 620.277 40.989 A 13.616 13.616 0 0 0 621.205 40.17 L 626.6 46.02 A 15.887 15.887 0 0 1 618.28 50.976 Q 615.506 51.675 612.17 51.675 Q 606.255 51.675 601.705 49.368 A 17.567 17.567 0 0 1 596.629 45.569 A 16.372 16.372 0 0 1 594.685 42.965 A 17.306 17.306 0 0 1 592.254 34.963 A 21.06 21.06 0 0 1 592.215 33.67 A 18.593 18.593 0 0 1 593.265 27.364 A 17.172 17.172 0 0 1 594.653 24.408 Q 597.09 20.28 601.347 17.973 A 19.258 19.258 0 0 1 609.409 15.711 A 23.108 23.108 0 0 1 610.87 15.665 A 20.579 20.579 0 0 1 616.908 16.529 A 18.333 18.333 0 0 1 620.165 17.875 Q 624.325 20.085 626.697 24.213 Q 629.07 28.34 629.07 33.8 A 1.998 1.998 0 0 1 629.067 33.886 Q 629.046 34.312 628.875 36.53 Z M 657.865 51.155 L 657.865 5.655 L 678.535 5.655 A 33.026 33.026 0 0 1 685.514 6.362 A 26.013 26.013 0 0 1 691.632 8.483 A 21.626 21.626 0 0 1 698.619 13.88 A 20.868 20.868 0 0 1 700.472 16.445 A 21.299 21.299 0 0 1 703.428 25.098 A 27.055 27.055 0 0 1 703.625 28.405 A 24.986 24.986 0 0 1 702.812 34.901 A 20.572 20.572 0 0 1 700.472 40.365 A 21.131 21.131 0 0 1 691.81 48.239 A 25.146 25.146 0 0 1 691.633 48.328 A 26.801 26.801 0 0 1 683.426 50.821 A 34.64 34.64 0 0 1 678.535 51.155 L 657.865 51.155 Z M 173.875 42.315 L 176.605 49.465 A 9.21 9.21 0 0 1 174.707 50.534 A 12.364 12.364 0 0 1 172.933 51.123 A 18.321 18.321 0 0 1 168.948 51.667 A 20.576 20.576 0 0 1 168.35 51.675 A 19.653 19.653 0 0 1 164.559 51.332 Q 162.329 50.893 160.597 49.893 A 10.384 10.384 0 0 1 158.697 48.49 A 10.164 10.164 0 0 1 155.892 43.808 Q 155.285 41.735 155.285 39.13 L 155.285 24.765 L 149.89 24.765 L 149.89 16.965 L 155.285 16.965 L 155.285 8.45 L 165.425 8.45 L 165.425 16.965 L 174.135 16.965 L 174.135 24.765 L 165.425 24.765 L 165.425 39 A 6.894 6.894 0 0 0 165.547 40.342 Q 165.704 41.131 166.062 41.743 A 3.652 3.652 0 0 0 166.562 42.413 Q 167.674 43.588 169.687 43.615 A 7.085 7.085 0 0 0 169.78 43.615 A 7.4 7.4 0 0 0 171.874 43.331 A 6.049 6.049 0 0 0 173.875 42.315 Z M 257.53 24.44 L 257.53 32.37 L 246.22 32.37 L 246.22 43.42 L 237.835 43.42 L 237.835 32.37 L 226.59 32.37 L 226.59 24.44 L 237.835 24.44 L 237.835 13.39 L 246.22 13.39 L 246.22 24.44 L 257.53 24.44 Z M 352.105 51.675 Q 346.58 51.675 342.193 49.368 Q 337.805 47.06 335.335 42.965 A 17.306 17.306 0 0 1 332.904 34.963 A 21.06 21.06 0 0 1 332.865 33.67 A 18.728 18.728 0 0 1 333.736 27.885 A 16.71 16.71 0 0 1 335.335 24.375 Q 337.805 20.28 342.193 17.973 A 20.179 20.179 0 0 1 349.742 15.776 A 24.803 24.803 0 0 1 352.105 15.665 A 22.649 22.649 0 0 1 357.874 16.375 A 19.111 19.111 0 0 1 361.985 17.973 Q 366.34 20.28 368.81 24.375 A 17.306 17.306 0 0 1 371.241 32.378 A 21.06 21.06 0 0 1 371.28 33.67 A 18.728 18.728 0 0 1 370.409 39.456 A 16.71 16.71 0 0 1 368.81 42.965 Q 366.34 47.06 361.985 49.368 A 19.903 19.903 0 0 1 354.631 51.549 A 24.642 24.642 0 0 1 352.105 51.675 Z M 131.95 51.155 L 131.95 2.925 L 142.09 2.925 L 142.09 51.155 L 131.95 51.155 Z M 636.545 51.155 L 636.545 5.655 L 647.075 5.655 L 647.075 51.155 L 636.545 51.155 Z M 668.395 42.51 L 678.015 42.51 A 19.838 19.838 0 0 0 682.655 41.998 A 13.611 13.611 0 0 0 688.903 38.708 Q 692.965 34.905 692.965 28.405 A 16.768 16.768 0 0 0 692.394 23.91 A 12.3 12.3 0 0 0 688.903 18.103 A 13.686 13.686 0 0 0 682.381 14.75 A 20.089 20.089 0 0 0 678.015 14.3 L 668.395 14.3 L 668.395 42.51 Z M 315.9 51.155 L 315.9 16.185 L 326.04 16.185 L 326.04 51.155 L 315.9 51.155 Z M 450.97 51.155 L 450.97 16.185 L 461.11 16.185 L 461.11 51.155 L 450.97 51.155 Z M 352.105 43.355 A 9.429 9.429 0 0 0 355.301 42.833 A 8.182 8.182 0 0 0 358.508 40.723 Q 361.01 38.09 361.01 33.67 A 12.654 12.654 0 0 0 360.673 30.665 A 8.777 8.777 0 0 0 358.507 26.618 Q 356.005 23.985 352.105 23.985 A 9.46 9.46 0 0 0 348.851 24.526 A 8.325 8.325 0 0 0 345.67 26.618 A 8.845 8.845 0 0 0 343.383 31.079 A 12.865 12.865 0 0 0 343.135 33.67 A 12.473 12.473 0 0 0 343.484 36.705 A 8.736 8.736 0 0 0 345.67 40.723 A 8.479 8.479 0 0 0 351.742 43.349 A 11.278 11.278 0 0 0 352.105 43.355 Z M 289.64 31.98 L 277.355 31.98 L 277.355 43.225 L 289.64 43.225 Q 293.586 43.225 295.689 41.997 A 5.78 5.78 0 0 0 295.912 41.86 A 4.447 4.447 0 0 0 297.957 38.615 A 6.758 6.758 0 0 0 298.025 37.635 Q 298.025 32.932 292.226 32.141 A 19.195 19.195 0 0 0 289.64 31.98 Z M 287.82 13.585 L 277.355 13.585 L 277.355 24.31 L 287.82 24.31 Q 291.72 24.31 293.735 22.945 Q 295.75 21.58 295.75 18.915 A 5.573 5.573 0 0 0 295.512 17.241 A 4.249 4.249 0 0 0 293.735 14.918 Q 291.759 13.611 287.972 13.586 A 22.504 22.504 0 0 0 287.82 13.585 Z M 767.39 33.41 L 781.82 33.41 L 774.605 15.99 L 767.39 33.41 Z M 59.28 30.615 L 76.505 30.615 A 9.308 9.308 0 0 0 75.596 27.758 A 7.983 7.983 0 0 0 73.645 25.318 A 8.323 8.323 0 0 0 68.855 23.374 A 10.826 10.826 0 0 0 67.925 23.335 A 10.06 10.06 0 0 0 65.076 23.722 A 8.111 8.111 0 0 0 62.14 25.285 Q 59.8 27.235 59.28 30.615 Z M 478.01 30.615 L 495.235 30.615 A 9.308 9.308 0 0 0 494.326 27.758 A 7.983 7.983 0 0 0 492.375 25.318 A 8.323 8.323 0 0 0 487.585 23.374 A 10.826 10.826 0 0 0 486.655 23.335 A 10.06 10.06 0 0 0 483.806 23.722 A 8.111 8.111 0 0 0 480.87 25.285 Q 478.53 27.235 478.01 30.615 Z M 602.29 30.615 L 619.515 30.615 A 9.308 9.308 0 0 0 618.606 27.758 A 7.983 7.983 0 0 0 616.655 25.318 A 8.323 8.323 0 0 0 611.865 23.374 A 10.826 10.826 0 0 0 610.935 23.335 A 10.06 10.06 0 0 0 608.086 23.722 A 8.111 8.111 0 0 0 605.15 25.285 Q 602.81 27.235 602.29 30.615 Z M 318.908 11.052 A 7.838 7.838 0 0 0 320.97 11.31 Q 323.765 11.31 325.52 9.653 A 5.453 5.453 0 0 0 326.889 7.644 A 5.997 5.997 0 0 0 327.275 5.46 A 5.227 5.227 0 0 0 326.915 3.5 A 5.142 5.142 0 0 0 325.52 1.56 A 5.953 5.953 0 0 0 322.995 0.238 A 8.176 8.176 0 0 0 320.97 0 A 8.384 8.384 0 0 0 319.598 0.108 A 6.009 6.009 0 0 0 316.42 1.625 A 5.527 5.527 0 0 0 315.25 3.139 A 5.387 5.387 0 0 0 314.665 5.655 Q 314.665 8.06 316.42 9.685 A 5.87 5.87 0 0 0 318.908 11.052 Z M 453.978 11.052 A 7.838 7.838 0 0 0 456.04 11.31 Q 458.835 11.31 460.59 9.653 A 5.453 5.453 0 0 0 461.959 7.644 A 5.997 5.997 0 0 0 462.345 5.46 A 5.227 5.227 0 0 0 461.985 3.5 A 5.142 5.142 0 0 0 460.59 1.56 A 5.953 5.953 0 0 0 458.065 0.238 A 8.176 8.176 0 0 0 456.04 0 A 8.384 8.384 0 0 0 454.668 0.108 A 6.009 6.009 0 0 0 451.49 1.625 A 5.527 5.527 0 0 0 450.32 3.139 A 5.387 5.387 0 0 0 449.735 5.655 Q 449.735 8.06 451.49 9.685 A 5.87 5.87 0 0 0 453.978 11.052 Z M 112.645 40.105 L 112.645 36.53 L 105.69 36.53 Q 101.161 36.53 99.919 38.688 A 3.819 3.819 0 0 0 99.45 40.625 Q 99.45 42.54 100.923 43.671 A 4.591 4.591 0 0 0 100.978 43.713 A 5.27 5.27 0 0 0 102.659 44.529 Q 103.395 44.745 104.275 44.816 A 11.171 11.171 0 0 0 105.17 44.85 Q 107.77 44.85 109.785 43.648 A 6.55 6.55 0 0 0 112.591 40.25 A 8.221 8.221 0 0 0 112.645 40.105 Z" vector-effect="non-scaling-stroke"/>
          <path id="HealthBioscience" fill="#0053b3" d="M 31.2 5.655 L 41.73 5.655 L 41.73 51.155 L 31.2 51.155 L 31.2 32.5 L 10.53 32.5 L 10.53 51.155 L 0 51.155 L 0 5.655 L 10.53 5.655 L 10.53 23.595 L 31.2 23.595 L 31.2 5.655 Z M 218.075 31.135 L 218.075 51.155 L 207.935 51.155 L 207.935 32.695 A 15.144 15.144 0 0 0 207.775 30.411 Q 207.395 27.927 206.115 26.488 A 5.873 5.873 0 0 0 203.049 24.688 Q 202.11 24.456 200.999 24.441 A 11.415 11.415 0 0 0 200.85 24.44 A 10.038 10.038 0 0 0 198.193 24.774 A 7.396 7.396 0 0 0 194.74 26.813 A 7.473 7.473 0 0 0 193.07 29.653 Q 192.465 31.452 192.465 33.865 L 192.465 51.155 L 182.325 51.155 L 182.325 2.925 L 192.465 2.925 L 192.465 19.825 A 13.335 13.335 0 0 1 196.811 16.947 A 15.5 15.5 0 0 1 197.34 16.738 Q 200.2 15.665 203.58 15.665 Q 210.08 15.665 214.078 19.565 A 12.345 12.345 0 0 1 217.197 24.773 Q 218.075 27.54 218.075 31.135 Z M 547.3 31.135 L 547.3 51.155 L 537.16 51.155 L 537.16 32.695 A 15.144 15.144 0 0 0 537 30.411 Q 536.62 27.927 535.34 26.488 A 5.873 5.873 0 0 0 532.274 24.688 Q 531.335 24.456 530.224 24.441 A 11.415 11.415 0 0 0 530.075 24.44 A 10.038 10.038 0 0 0 527.418 24.774 A 7.396 7.396 0 0 0 523.965 26.813 A 7.473 7.473 0 0 0 522.295 29.653 Q 521.69 31.452 521.69 33.865 L 521.69 51.155 L 511.55 51.155 L 511.55 16.185 L 521.235 16.185 L 521.235 20.28 A 13.256 13.256 0 0 1 525.598 17.143 A 15.583 15.583 0 0 1 526.24 16.868 A 16.787 16.787 0 0 1 531.161 15.731 A 20.113 20.113 0 0 1 532.805 15.665 Q 539.305 15.665 543.303 19.565 A 12.345 12.345 0 0 1 546.422 24.773 Q 547.3 27.54 547.3 31.135 Z M 374.66 47.905 L 378.04 40.625 A 18.18 18.18 0 0 0 380.712 42.02 Q 382.046 42.588 383.595 43.034 A 29.632 29.632 0 0 0 383.695 43.063 A 24.343 24.343 0 0 0 388.745 43.957 A 21.869 21.869 0 0 0 390.195 44.005 A 19.52 19.52 0 0 0 392.341 43.898 Q 394.488 43.659 395.56 42.888 A 2.42 2.42 0 0 0 396.63 40.82 A 1.984 1.984 0 0 0 395.772 39.143 Q 395.403 38.871 394.875 38.675 A 12.018 12.018 0 0 0 393.739 38.325 Q 392.096 37.897 389.48 37.57 A 75.01 75.01 0 0 1 386.59 37.078 Q 385.237 36.818 384.079 36.534 A 33.364 33.364 0 0 1 382.395 36.075 Q 379.6 35.23 377.553 33.085 A 6.966 6.966 0 0 1 375.925 30.195 Q 375.61 29.128 375.531 27.85 A 14.21 14.21 0 0 1 375.505 26.975 Q 375.505 23.66 377.423 21.093 Q 379.34 18.525 383.013 17.095 A 19.964 19.964 0 0 1 387.018 16.023 Q 388.916 15.71 391.07 15.671 A 34.172 34.172 0 0 1 391.69 15.665 Q 395.395 15.665 399.068 16.478 A 26.958 26.958 0 0 1 401.83 17.236 Q 403.712 17.868 405.145 18.72 L 401.765 25.935 Q 397.15 23.335 391.69 23.335 Q 388.44 23.335 386.815 24.245 A 4.308 4.308 0 0 0 386.039 24.79 Q 385.19 25.552 385.19 26.585 Q 385.19 27.854 386.26 28.529 A 3.676 3.676 0 0 0 386.945 28.86 A 12.864 12.864 0 0 0 387.953 29.181 Q 389.119 29.506 390.832 29.814 A 65.551 65.551 0 0 0 392.535 30.095 A 88.998 88.998 0 0 1 395.3 30.598 Q 396.532 30.844 397.595 31.1 A 38.434 38.434 0 0 1 399.555 31.623 Q 402.285 32.435 404.3 34.58 A 7.069 7.069 0 0 1 405.95 37.601 Q 406.247 38.679 406.302 39.959 A 13.851 13.851 0 0 1 406.315 40.56 A 10.825 10.825 0 0 1 406.315 40.611 A 9.229 9.229 0 0 1 404.365 46.345 A 10.771 10.771 0 0 1 401.606 48.837 Q 400.393 49.615 398.881 50.2 A 18.583 18.583 0 0 1 398.677 50.278 A 20.848 20.848 0 0 1 394.729 51.304 Q 392.808 51.617 390.623 51.666 A 36.515 36.515 0 0 1 389.805 51.675 Q 385.45 51.675 381.29 50.603 A 31.835 31.835 0 0 1 378.518 49.761 Q 377.238 49.303 376.177 48.773 A 14.75 14.75 0 0 1 374.66 47.905 Z M 290.42 51.155 L 266.89 51.155 L 266.89 5.655 L 289.12 5.655 Q 294.576 5.655 298.369 7.025 A 14.46 14.46 0 0 1 301.892 8.84 Q 306.169 11.899 306.338 17.057 A 13.069 13.069 0 0 1 306.345 17.485 A 11.781 11.781 0 0 1 305.784 21.17 A 10.516 10.516 0 0 1 304.752 23.4 Q 303.16 26 300.3 27.495 A 13.426 13.426 0 0 1 303.73 29.112 A 11.132 11.132 0 0 1 306.41 31.623 A 10.65 10.65 0 0 1 308.455 36.529 A 14.288 14.288 0 0 1 308.62 38.74 A 12.252 12.252 0 0 1 307.966 42.837 A 10.276 10.276 0 0 1 303.973 47.938 Q 300.654 50.235 295.163 50.892 A 40.032 40.032 0 0 1 290.42 51.155 Z M 122.785 31.2 L 122.785 51.155 L 113.295 51.155 L 113.295 46.8 Q 110.752 51.134 104.305 51.615 A 22.465 22.465 0 0 1 102.635 51.675 Q 98.676 51.675 95.752 50.358 A 12.612 12.612 0 0 1 95.647 50.31 Q 92.69 48.945 91.13 46.54 Q 89.57 44.135 89.57 41.08 A 10.368 10.368 0 0 1 90.165 37.494 A 8.932 8.932 0 0 1 93.243 33.41 A 11.5 11.5 0 0 1 96.539 31.714 Q 99.571 30.685 103.981 30.62 A 40.801 40.801 0 0 1 104.585 30.615 L 112.645 30.615 A 8.712 8.712 0 0 0 112.41 28.528 A 5.766 5.766 0 0 0 110.63 25.513 Q 109.093 24.149 106.384 23.826 A 15.196 15.196 0 0 0 104.585 23.725 Q 101.79 23.725 99.093 24.603 A 16.484 16.484 0 0 0 96.527 25.672 A 12.829 12.829 0 0 0 94.51 26.975 L 90.87 19.89 A 19.8 19.8 0 0 1 94.667 17.818 A 25.799 25.799 0 0 1 97.727 16.77 Q 101.725 15.665 105.95 15.665 A 27.372 27.372 0 0 1 110.768 16.062 Q 115.47 16.904 118.43 19.533 A 12.2 12.2 0 0 1 121.981 25.223 Q 122.584 27.192 122.735 29.57 A 25.77 25.77 0 0 1 122.785 31.2 Z M 445.12 24.57 L 437.255 28.795 A 10.742 10.742 0 0 0 435.205 26.157 A 8.278 8.278 0 0 0 429.39 23.985 A 9.914 9.914 0 0 0 426.077 24.519 A 8.589 8.589 0 0 0 422.825 26.585 A 8.622 8.622 0 0 0 420.505 30.93 A 12.709 12.709 0 0 0 420.225 33.67 Q 420.225 38.155 422.825 40.755 A 8.773 8.773 0 0 0 428.779 43.339 A 11.625 11.625 0 0 0 429.39 43.355 A 8.81 8.81 0 0 0 433.326 42.499 Q 435.192 41.583 436.54 39.685 A 12.035 12.035 0 0 0 437.255 38.545 L 445.12 42.835 Q 443.235 46.995 439.108 49.335 A 17.819 17.819 0 0 1 432.93 51.423 A 23.181 23.181 0 0 1 429.455 51.675 A 23.298 23.298 0 0 1 423.526 50.945 A 19.853 19.853 0 0 1 419.412 49.368 Q 414.96 47.06 412.458 42.965 A 17.147 17.147 0 0 1 409.994 34.953 A 20.794 20.794 0 0 1 409.955 33.67 A 18.463 18.463 0 0 1 410.872 27.778 A 16.607 16.607 0 0 1 412.457 24.375 Q 414.96 20.28 419.413 17.973 A 20.685 20.685 0 0 1 427.043 15.778 A 25.394 25.394 0 0 1 429.455 15.665 A 22.437 22.437 0 0 1 434.328 16.172 A 17.519 17.519 0 0 1 439.107 17.973 Q 443.235 20.28 445.12 24.57 Z M 589.42 24.57 L 581.555 28.795 A 10.742 10.742 0 0 0 579.505 26.157 A 8.278 8.278 0 0 0 573.69 23.985 A 9.914 9.914 0 0 0 570.377 24.519 A 8.589 8.589 0 0 0 567.125 26.585 A 8.622 8.622 0 0 0 564.805 30.93 A 12.709 12.709 0 0 0 564.525 33.67 Q 564.525 38.155 567.125 40.755 A 8.773 8.773 0 0 0 573.079 43.339 A 11.625 11.625 0 0 0 573.69 43.355 A 8.81 8.81 0 0 0 577.626 42.499 Q 579.492 41.583 580.84 39.685 A 12.035 12.035 0 0 0 581.555 38.545 L 589.42 42.835 Q 587.535 46.995 583.407 49.335 A 17.819 17.819 0 0 1 577.23 51.423 A 23.181 23.181 0 0 1 573.755 51.675 A 23.298 23.298 0 0 1 567.826 50.945 A 19.853 19.853 0 0 1 563.712 49.368 Q 559.26 47.06 556.757 42.965 A 17.147 17.147 0 0 1 554.294 34.953 A 20.794 20.794 0 0 1 554.255 33.67 A 18.463 18.463 0 0 1 555.172 27.778 A 16.607 16.607 0 0 1 556.757 24.375 Q 559.26 20.28 563.713 17.973 A 20.685 20.685 0 0 1 571.343 15.778 A 25.394 25.394 0 0 1 573.755 15.665 A 22.437 22.437 0 0 1 578.628 16.172 A 17.519 17.519 0 0 1 583.407 17.973 Q 587.535 20.28 589.42 24.57 Z M 85.865 36.53 L 59.41 36.53 Q 60.125 39.78 62.79 41.665 A 10.017 10.017 0 0 0 66.629 43.285 A 14.001 14.001 0 0 0 69.42 43.55 Q 72.15 43.55 74.263 42.738 A 11.233 11.233 0 0 0 77.267 40.989 A 13.616 13.616 0 0 0 78.195 40.17 L 83.59 46.02 A 15.887 15.887 0 0 1 75.27 50.976 Q 72.496 51.675 69.16 51.675 Q 63.245 51.675 58.695 49.368 A 17.567 17.567 0 0 1 53.619 45.569 A 16.372 16.372 0 0 1 51.675 42.965 A 17.306 17.306 0 0 1 49.244 34.963 A 21.06 21.06 0 0 1 49.205 33.67 A 18.593 18.593 0 0 1 50.255 27.364 A 17.172 17.172 0 0 1 51.643 24.408 Q 54.08 20.28 58.338 17.973 A 19.258 19.258 0 0 1 66.399 15.711 A 23.108 23.108 0 0 1 67.86 15.665 A 20.579 20.579 0 0 1 73.898 16.529 A 18.333 18.333 0 0 1 77.155 17.875 Q 81.315 20.085 83.688 24.213 Q 86.06 28.34 86.06 33.8 A 1.998 1.998 0 0 1 86.057 33.886 Q 86.036 34.312 85.865 36.53 Z M 504.595 36.53 L 478.14 36.53 Q 478.855 39.78 481.52 41.665 A 10.017 10.017 0 0 0 485.359 43.285 A 14.001 14.001 0 0 0 488.15 43.55 Q 490.88 43.55 492.993 42.738 A 11.233 11.233 0 0 0 495.997 40.989 A 13.616 13.616 0 0 0 496.925 40.17 L 502.32 46.02 A 15.887 15.887 0 0 1 494 50.976 Q 491.226 51.675 487.89 51.675 Q 481.975 51.675 477.425 49.368 A 17.567 17.567 0 0 1 472.349 45.569 A 16.372 16.372 0 0 1 470.405 42.965 A 17.306 17.306 0 0 1 467.974 34.963 A 21.06 21.06 0 0 1 467.935 33.67 A 18.593 18.593 0 0 1 468.985 27.364 A 17.172 17.172 0 0 1 470.373 24.408 Q 472.81 20.28 477.068 17.973 A 19.258 19.258 0 0 1 485.129 15.711 A 23.108 23.108 0 0 1 486.59 15.665 A 20.579 20.579 0 0 1 492.628 16.529 A 18.333 18.333 0 0 1 495.885 17.875 Q 500.045 20.085 502.418 24.213 Q 504.79 28.34 504.79 33.8 A 1.998 1.998 0 0 1 504.787 33.886 Q 504.766 34.312 504.595 36.53 Z M 628.875 36.53 L 602.42 36.53 Q 603.135 39.78 605.8 41.665 A 10.017 10.017 0 0 0 609.639 43.285 A 14.001 14.001 0 0 0 612.43 43.55 Q 615.16 43.55 617.272 42.738 A 11.233 11.233 0 0 0 620.277 40.989 A 13.616 13.616 0 0 0 621.205 40.17 L 626.6 46.02 A 15.887 15.887 0 0 1 618.28 50.976 Q 615.506 51.675 612.17 51.675 Q 606.255 51.675 601.705 49.368 A 17.567 17.567 0 0 1 596.629 45.569 A 16.372 16.372 0 0 1 594.685 42.965 A 17.306 17.306 0 0 1 592.254 34.963 A 21.06 21.06 0 0 1 592.215 33.67 A 18.593 18.593 0 0 1 593.265 27.364 A 17.172 17.172 0 0 1 594.653 24.408 Q 597.09 20.28 601.347 17.973 A 19.258 19.258 0 0 1 609.409 15.711 A 23.108 23.108 0 0 1 610.87 15.665 A 20.579 20.579 0 0 1 616.908 16.529 A 18.333 18.333 0 0 1 620.165 17.875 Q 624.325 20.085 626.697 24.213 Q 629.07 28.34 629.07 33.8 A 1.998 1.998 0 0 1 629.067 33.886 Q 629.046 34.312 628.875 36.53 Z M 173.875 42.315 L 176.605 49.465 A 9.21 9.21 0 0 1 174.707 50.534 A 12.364 12.364 0 0 1 172.933 51.123 A 18.321 18.321 0 0 1 168.948 51.667 A 20.576 20.576 0 0 1 168.35 51.675 A 19.653 19.653 0 0 1 164.559 51.332 Q 162.329 50.893 160.597 49.893 A 10.384 10.384 0 0 1 158.697 48.49 A 10.164 10.164 0 0 1 155.892 43.808 Q 155.285 41.735 155.285 39.13 L 155.285 24.765 L 149.89 24.765 L 149.89 16.965 L 155.285 16.965 L 155.285 8.45 L 165.425 8.45 L 165.425 16.965 L 174.135 16.965 L 174.135 24.765 L 165.425 24.765 L 165.425 39 A 6.894 6.894 0 0 0 165.547 40.342 Q 165.704 41.131 166.062 41.743 A 3.652 3.652 0 0 0 166.562 42.413 Q 167.674 43.588 169.687 43.615 A 7.085 7.085 0 0 0 169.78 43.615 A 7.4 7.4 0 0 0 171.874 43.331 A 6.049 6.049 0 0 0 173.875 42.315 Z M 257.53 24.44 L 257.53 32.37 L 246.22 32.37 L 246.22 43.42 L 237.835 43.42 L 237.835 32.37 L 226.59 32.37 L 226.59 24.44 L 237.835 24.44 L 237.835 13.39 L 246.22 13.39 L 246.22 24.44 L 257.53 24.44 Z M 352.105 51.675 Q 346.58 51.675 342.193 49.368 Q 337.805 47.06 335.335 42.965 A 17.306 17.306 0 0 1 332.904 34.963 A 21.06 21.06 0 0 1 332.865 33.67 A 18.728 18.728 0 0 1 333.736 27.885 A 16.71 16.71 0 0 1 335.335 24.375 Q 337.805 20.28 342.193 17.973 A 20.179 20.179 0 0 1 349.742 15.776 A 24.803 24.803 0 0 1 352.105 15.665 A 22.649 22.649 0 0 1 357.874 16.375 A 19.111 19.111 0 0 1 361.985 17.973 Q 366.34 20.28 368.81 24.375 A 17.306 17.306 0 0 1 371.241 32.378 A 21.06 21.06 0 0 1 371.28 33.67 A 18.728 18.728 0 0 1 370.409 39.456 A 16.71 16.71 0 0 1 368.81 42.965 Q 366.34 47.06 361.985 49.368 A 19.903 19.903 0 0 1 354.631 51.549 A 24.642 24.642 0 0 1 352.105 51.675 Z M 131.95 51.155 L 131.95 2.925 L 142.09 2.925 L 142.09 51.155 L 131.95 51.155 Z M 315.9 51.155 L 315.9 16.185 L 326.04 16.185 L 326.04 51.155 L 315.9 51.155 Z M 450.97 51.155 L 450.97 16.185 L 461.11 16.185 L 461.11 51.155 L 450.97 51.155 Z M 352.105 43.355 A 9.429 9.429 0 0 0 355.301 42.833 A 8.182 8.182 0 0 0 358.508 40.723 Q 361.01 38.09 361.01 33.67 A 12.654 12.654 0 0 0 360.673 30.665 A 8.777 8.777 0 0 0 358.507 26.618 Q 356.005 23.985 352.105 23.985 A 9.46 9.46 0 0 0 348.851 24.526 A 8.325 8.325 0 0 0 345.67 26.618 A 8.845 8.845 0 0 0 343.383 31.079 A 12.865 12.865 0 0 0 343.135 33.67 A 12.473 12.473 0 0 0 343.484 36.705 A 8.736 8.736 0 0 0 345.67 40.723 A 8.479 8.479 0 0 0 351.742 43.349 A 11.278 11.278 0 0 0 352.105 43.355 Z M 289.64 31.98 L 277.355 31.98 L 277.355 43.225 L 289.64 43.225 Q 293.586 43.225 295.689 41.997 A 5.78 5.78 0 0 0 295.912 41.86 A 4.447 4.447 0 0 0 297.957 38.615 A 6.758 6.758 0 0 0 298.025 37.635 Q 298.025 32.932 292.226 32.141 A 19.195 19.195 0 0 0 289.64 31.98 Z M 287.82 13.585 L 277.355 13.585 L 277.355 24.31 L 287.82 24.31 Q 291.72 24.31 293.735 22.945 Q 295.75 21.58 295.75 18.915 A 5.573 5.573 0 0 0 295.512 17.241 A 4.249 4.249 0 0 0 293.735 14.918 Q 291.759 13.611 287.972 13.586 A 22.504 22.504 0 0 0 287.82 13.585 Z M 59.28 30.615 L 76.505 30.615 A 9.308 9.308 0 0 0 75.596 27.758 A 7.983 7.983 0 0 0 73.645 25.318 A 8.323 8.323 0 0 0 68.855 23.374 A 10.826 10.826 0 0 0 67.925 23.335 A 10.06 10.06 0 0 0 65.076 23.722 A 8.111 8.111 0 0 0 62.14 25.285 Q 59.8 27.235 59.28 30.615 Z M 478.01 30.615 L 495.235 30.615 A 9.308 9.308 0 0 0 494.326 27.758 A 7.983 7.983 0 0 0 492.375 25.318 A 8.323 8.323 0 0 0 487.585 23.374 A 10.826 10.826 0 0 0 486.655 23.335 A 10.06 10.06 0 0 0 483.806 23.722 A 8.111 8.111 0 0 0 480.87 25.285 Q 478.53 27.235 478.01 30.615 Z M 602.29 30.615 L 619.515 30.615 A 9.308 9.308 0 0 0 618.606 27.758 A 7.983 7.983 0 0 0 616.655 25.318 A 8.323 8.323 0 0 0 611.865 23.374 A 10.826 10.826 0 0 0 610.935 23.335 A 10.06 10.06 0 0 0 608.086 23.722 A 8.111 8.111 0 0 0 605.15 25.285 Q 602.81 27.235 602.29 30.615 Z M 318.908 11.052 A 7.838 7.838 0 0 0 320.97 11.31 Q 323.765 11.31 325.52 9.653 A 5.453 5.453 0 0 0 326.889 7.644 A 5.997 5.997 0 0 0 327.275 5.46 A 5.227 5.227 0 0 0 326.915 3.5 A 5.142 5.142 0 0 0 325.52 1.56 A 5.953 5.953 0 0 0 322.995 0.238 A 8.176 8.176 0 0 0 320.97 0 A 8.384 8.384 0 0 0 319.598 0.108 A 6.009 6.009 0 0 0 316.42 1.625 A 5.527 5.527 0 0 0 315.25 3.139 A 5.387 5.387 0 0 0 314.665 5.655 Q 314.665 8.06 316.42 9.685 A 5.87 5.87 0 0 0 318.908 11.052 Z M 453.978 11.052 A 7.838 7.838 0 0 0 456.04 11.31 Q 458.835 11.31 460.59 9.653 A 5.453 5.453 0 0 0 461.959 7.644 A 5.997 5.997 0 0 0 462.345 5.46 A 5.227 5.227 0 0 0 461.985 3.5 A 5.142 5.142 0 0 0 460.59 1.56 A 5.953 5.953 0 0 0 458.065 0.238 A 8.176 8.176 0 0 0 456.04 0 A 8.384 8.384 0 0 0 454.668 0.108 A 6.009 6.009 0 0 0 451.49 1.625 A 5.527 5.527 0 0 0 450.32 3.139 A 5.387 5.387 0 0 0 449.735 5.655 Q 449.735 8.06 451.49 9.685 A 5.87 5.87 0 0 0 453.978 11.052 Z M 112.645 40.105 L 112.645 36.53 L 105.69 36.53 Q 101.161 36.53 99.919 38.688 A 3.819 3.819 0 0 0 99.45 40.625 Q 99.45 42.54 100.923 43.671 A 4.591 4.591 0 0 0 100.978 43.713 A 5.27 5.27 0 0 0 102.659 44.529 Q 103.395 44.745 104.275 44.816 A 11.171 11.171 0 0 0 105.17 44.85 Q 107.77 44.85 109.785 43.648 A 6.55 6.55 0 0 0 112.591 40.25 A 8.221 8.221 0 0 0 112.645 40.105 Z" vector-effect="non-scaling-stroke"/>
        </g>
    </g>
</svg>
